# Blender v2.83.2 OBJ File: ''
# www.blender.org
mtllib untitled.mtl
o Cube
v 5.094325 2.555835 -1.490470
v 4.454181 1.156689 -3.307685
v 2.965599 -3.971522 4.285075
v 2.325455 -5.370667 2.467860
v -2.325455 5.370667 -1.043977
v -2.965599 3.971522 -2.861193
v -4.454181 -1.156689 4.731568
v -5.094325 -2.555835 2.914352
vt 0.625000 0.500000
vt 0.875000 0.500000
vt 0.875000 0.750000
vt 0.625000 0.750000
vt 0.375000 0.750000
vt 0.625000 1.000000
vt 0.375000 1.000000
vt 0.375000 0.000000
vt 0.625000 0.000000
vt 0.625000 0.250000
vt 0.375000 0.250000
vt 0.125000 0.500000
vt 0.375000 0.500000
vt 0.125000 0.750000
vn 0.2688 0.5876 0.7632
vn -0.2373 -0.7275 0.6437
vn -0.9335 0.3541 0.0562
vn -0.2688 -0.5876 -0.7632
vn 0.9335 -0.3541 -0.0562
vn 0.2373 0.7275 -0.6437
usemtl Material
s off
f 1/1/1 5/2/1 7/3/1 3/4/1
f 4/5/2 3/4/2 7/6/2 8/7/2
f 8/8/3 7/9/3 5/10/3 6/11/3
f 6/12/4 2/13/4 4/5/4 8/14/4
f 2/13/5 1/1/5 3/4/5 4/5/5
f 6/11/6 5/10/6 1/1/6 2/13/6
# v/vt/vn -> notice, that for a given face the index of the normal vector (vn) is the same